{"title":"Alpha and Omega 2010 Proper CAM XVID READ NFO LKRG","uid":5864626,"size":1707611951,"categoryP":"video","categoryS":"movies","magnet":"?xt=urn:btih:248548b3dc9599656b593ac6d7c4d2ba811edbe5&amp;dn=Alpha+and+Omega+2010+Proper+CAM+XVID+READ+NFO+LKRG&amp;tr=udp%3A%2F%2Ftracker.openbittorrent.com%3A80&amp;tr=udp%3A%2F%2Fopen.demonii.com%3A1337&amp;tr=udp%3A%2F%2Ftracker.coppersurfer.tk%3A6969&amp;tr=udp%3A%2F%2Fexodus.desync.com%3A6969","seeders":0,"leechers":0,"uploader":"razvanripper","files":-1,"time":1286065897,"description":"Scrrens : &lt;a href=&quot; http://bayimg.com/LAPGBAACi&quot; rel=&quot;nofollow&quot; target=&quot;_NEW&quot;&gt; http://bayimg.com/LAPGBAACi&lt;/a&gt; \n         &lt;a href=&quot; http://bayimg.com/LaPgcAaCi&quot; rel=&quot;nofollow&quot; target=&quot;_NEW&quot;&gt; http://bayimg.com/LaPgcAaCi&lt;/a&gt;\nTwo young wolves at opposite ends of their pack's social order are thrown together\ninto a foreign land and need each other to return home, but love complicates\neverything.\n &lt;a href=&quot;\nhttp://www.imdb.com/title/tt1213012/&quot; rel=&quot;nofollow&quot; target=&quot;_NEW&quot;&gt;\nhttp://www.imdb.com/title/tt1213012/&lt;/a&gt;\n\nVideo\nID                               : 0\nFormat                           : MPEG-4 Visual\nFormat profile                   : Advanced Simple@L5\nFormat settings, BVOP            : Yes\nFormat settings, QPel            : No\nFormat settings, GMC             : No warppoints\nFormat settings, Matrix          : Default (H.263)\nMuxing mode                      : Packed bitstream\nCodec ID                         : XVID\nCodec ID/Hint                    : XviD\nDuration                         : 1h 18mn\nBit rate                         : 2 620 Kbps\nWidth                            : 720 pixels\nHeight                           : 378 pixels\nDisplay aspect ratio             : 1.905\nFrame rate                       : 29.970 fps\nResolution                       : 8 bits\nColorimetry                      : 4:2:0\nScan type                        : Progressive\nBits/(Pixel*Frame)               : 0.321\nStream size                      : 1.45 GiB (91%)\nWriting library                  : XviD 1.2.1 (UTC 2008-12-04)\n\nAudio\nID                               : 1\nFormat                           : AC-3\nFormat/Info                      : Audio Coding 3\nCodec ID                         : 2000\nDuration                         : 1h 18mn\nBit rate mode                    : Constant\nBit rate                         : 256 Kbps\nChannel(s)                       : 2 channels\nChannel positions                : L R\nSampling rate                    : 48.0 KHz\nStream size                      : 145 MiB (9%)\nAlignment                        : Aligned on interleaves\nInterleave, duration             : 480 ms (14.38 video frames)\nInterleave, preload duration     : 960 ms\n\n","torrent":{"xt":"urn:btih:248548b3dc9599656b593ac6d7c4d2ba811edbe5","amp;dn":"Alpha+and+Omega+2010+Proper+CAM+XVID+READ+NFO+LKRG","amp;tr":["udp%3A%2F%2Ftracker.openbittorrent.com%3A80","udp%3A%2F%2Fopen.demonii.com%3A1337","udp%3A%2F%2Ftracker.coppersurfer.tk%3A6969","udp%3A%2F%2Fexodus.desync.com%3A6969"],"infoHash":"248548b3dc9599656b593ac6d7c4d2ba811edbe5","infoHashBuffer":{"type":"Buffer","data":[36,133,72,179,220,149,153,101,107,89,58,198,215,196,210,186,129,30,219,229]},"announce":[],"urlList":[]}}